# xmcd
#
# Track frame offsets: 
#        150
#        4047
#        25952
#        49705
#        72587
#        94775
#        119265
#        146660
#        168105
#        190570
#        218187
#
# Disc length: 3198 seconds
#
# Revision: 0
# Processed by: cddbd v1.5.2PL0 Copyright (c) Steve Scherf et al.
# Submitted via: ExactAudioCopy v1.0b3
#
DISCID=920c7c0b
DTITLE=Duy Khanh - Nhung Chieu Khong Co Em
DYEAR=1991
DGENRE=
TTITLE0=Hoang Hoa - Loi gioi thieu
TTITLE1=Got phieu du
TTITLE2=Lay Me con di
TTITLE3=Tra loi thu em
TTITLE4=Linh hon tuong da
TTITLE5=Ngay xua len 5 len 3
TTITLE6=Nho mot nguoi
TTITLE7=Thuong ve mien Trung
TTITLE8=Han Do Ban
TTITLE9=Nhung chieu khong co em
TTITLE10=Chieu thuong do thi
EXTD=
EXTT0=
EXTT1=
EXTT2=
EXTT3=
EXTT4=
EXTT5=
EXTT6=
EXTT7=
EXTT8=
EXTT9=
EXTT10=
PLAYORDER=
